<svg width="95" height="19" viewBox="0 0 95 19" fill="none" xmlns="http://www.w3.org/2000/svg">
<path fill-rule="evenodd" clip-rule="evenodd" d="M85.3186 18.2187C80.477 18.2263 76.5716 14.3337 76.5639 9.51712C76.5569 4.70051 80.4496 0.770113 85.291 0.762462C90.1076 0.754856 94.0131 4.67308 94.0207 9.48969C94.0283 14.3063 90.1351 18.2116 85.3186 18.2187ZM85.2975 4.5849C82.5709 4.58931 80.3826 6.80962 80.387 9.51067C80.3908 12.2124 82.5862 14.4008 85.3127 14.3962C88.0139 14.3918 90.2021 12.197 90.1977 9.49541C90.1939 6.79436 87.9985 4.58036 85.2975 4.5849Z" fill="#00579B"/>
<path fill-rule="evenodd" clip-rule="evenodd" d="M62.371 8.07646L55.322 8.08846L55.312 1.33646L51.44 1.34246L51.466 17.4755L55.337 17.4695L55.328 11.5625L62.377 11.5515L62.386 17.4595L66.258 17.4525L66.232 1.31946L62.361 1.32546L62.371 8.07646Z" fill="#00579B"/>
<path fill-rule="evenodd" clip-rule="evenodd" d="M32.405 18.2187C32.4139 18.2187 32.4228 18.2187 32.4317 18.2187C37.2482 18.2116 41.1414 14.3063 41.1338 9.48969C41.1262 4.67338 37.2212 0.75535 32.405 0.762461V4.58491C32.4069 4.5849 32.4087 4.5849 32.4106 4.5849C35.1116 4.58036 37.307 6.79436 37.3108 9.49541C37.3152 12.197 35.127 14.3918 32.4258 14.3962C32.4189 14.3963 32.412 14.3963 32.405 14.3962V18.2187Z" fill="#00579B"/>
<path fill-rule="evenodd" clip-rule="evenodd" d="M23.677 9.51712C23.6847 14.3337 27.5901 18.2263 32.4317 18.2187C32.6226 18.2184 32.8121 18.212 33 18.1996V14.3619C32.8117 14.3843 32.6201 14.3959 32.4258 14.3962C29.6992 14.4008 27.5039 12.2125 27.5 9.51067C27.4956 6.80962 29.684 4.58931 32.4105 4.5849C32.61 4.58456 32.8067 4.59633 33 4.61949V0.78166C32.8031 0.768618 32.6044 0.762146 32.4041 0.762462C27.5627 0.770113 23.67 4.70051 23.677 9.51712Z" fill="#F38374"/>
<path fill-rule="evenodd" clip-rule="evenodd" d="M3.882 8.00149L3.871 1.52349L0 1.52949L0.026 17.6615L3.897 17.6555L3.89 13.1135L5.525 11.4235L10.399 17.6455L15.884 17.6365L8.201 8.56549L15.437 1.50549L10.523 1.51349L3.882 8.00149Z" fill="#F38374"/>
</svg>
